HIERARCHY
ROOT Hips
{
  OFFSET 13.6774 106.653 -34.4427
  CHANNELS 6 Xposition Yposition Zposition Zrotation Xrotation Yrotation
  JOINT ToSpine
  {
    OFFSET -2.69724 7.43032 -0.144315
    CHANNELS 3 Zrotation Xrotation Yrotation
    JOINT Spine
    {
      OFFSET -0.0310711 10.7595 1.96963
      CHANNELS 3 Zrotation Xrotation Yrotation
      JOINT Spine1
      {
        OFFSET 19.9056 3.91189 0.764692
        CHANNELS 3 Zrotation Xrotation Yrotation
        JOINT Neck
        {
          OFFSET 25.9749 7.03908 -0.130764
          CHANNELS 3 Zrotation Xrotation Yrotation
          JOINT Head
          {
            OFFSET 9.52751 0.295786 -0.907742
            CHANNELS 3 Zrotation Xrotation Yrotation
            End Site
            {
              OFFSET 16.4037 0.713936 2.7358
            }
          }
        }
        JOINT LeftShoulder
        {
          OFFSET 17.7449 4.33886 11.7777
          CHANNELS 3 Zrotation Xrotation Yrotation
          JOINT LeftArm
          {
            OFFSET 0.911315 1.27913 9.80584
            CHANNELS 3 Zrotation Xrotation Yrotation
            JOINT LeftForeArm
            {
              OFFSET 28.6126 1.18197 -3.53199
              CHANNELS 3 Zrotation Xrotation Yrotation
              JOINT LeftHand
              {
                OFFSET 27.5088 0.0218783 0.327423
                CHANNELS 3 Zrotation Xrotation Yrotation
                End Site
                {
                  OFFSET 18.6038 -0.000155887 0.382096
                }
              }
            }
          }
        }
        JOINT RightShoulder
        {
          OFFSET 17.1009 2.89543 -12.2328
          CHANNELS 3 Zrotation Xrotation Yrotation
          JOINT RightArm
          {
            OFFSET 1.4228 0.178766 -10.211
            CHANNELS 3 Zrotation Xrotation Yrotation
            JOINT RightForeArm
            {
              OFFSET 28.733 1.87905 2.64907
              CHANNELS 3 Zrotation Xrotation Yrotation
              JOINT RightHand
              {
                OFFSET 27.4588 0.290562 -0.101845
                CHANNELS 3 Zrotation Xrotation Yrotation
                End Site
                {
                  OFFSET 17.8396 -0.255518 -0.000602873
                }
              }
            }
          }
        }
      }
    }
  }
  JOINT LeftUpLeg
  {
    OFFSET -5.61296 -2.22332 -10.2353
    CHANNELS 3 Zrotation Xrotation Yrotation
    JOINT LeftLeg
    {
      OFFSET 2.56703 -44.7417 -7.93097
      CHANNELS 3 Zrotation Xrotation Yrotation
      JOINT LeftFoot
      {
        OFFSET 3.16933 -46.5642 -3.96578
        CHANNELS 3 Zrotation Xrotation Yrotation
        JOINT LeftToeBase
        {
          OFFSET 0.346054 -6.02161 12.8035
          CHANNELS 3 Zrotation Xrotation Yrotation
          End Site
          {
            OFFSET 0.134235 -1.35082 5.13018
          }
        }
      }
    }
  }
  JOINT RightUpLeg
  {
    OFFSET -5.7928 -1.72406 10.6446
    CHANNELS 3 Zrotation Xrotation Yrotation
    JOINT RightLeg
    {
      OFFSET -2.57161 -44.7178 -7.85259
      CHANNELS 3 Zrotation Xrotation Yrotation
      JOINT RightFoot
      {
        OFFSET -3.10148 -46.5936 -4.03391
        CHANNELS 3 Zrotation Xrotation Yrotation
        JOINT RightToeBase
        {
          OFFSET -0.0828122 -6.13587 12.8035
          CHANNELS 3 Zrotation Xrotation Yrotation
          End Site
          {
            OFFSET -0.131328 -1.35082 5.13018
          }
        }
      }
    }
  }
}
MOTION
Frames: 7
Frame Time: 0.03333333333333333
0.0000 93.1000 0.0000 38.3720 -44.2887 -37.5404 -70.8556 -0.1385 87.9647 133.6076 72.4439 -49.1884 -8.6057 27.2448 1.0272 -166.1637 21.8033 178.1818 -160.1647 62.4758 -168.4550 0.1206 -14.2065 -33.3636 -58.8859 59.7149 -69.7301 3.6992 3.3582 -47.5274 -0.2444 -0.0856 0.4535 -1.6771 7.0187 35.1613 -80.1207 -36.2028 106.2761 19.8979 -2.4593 83.8119 0.3557 -0.5035 0.7066 -4.6787 3.7144 94.4388 -2.9603 42.5573 -7.4499 -3.0499 -4.8623 -0.5315 9.7518 -19.9239 16.3769 -63.9392 0.5288 79.1531 0.2505 28.5669 21.2785 -6.0212 -11.6804 0.7186 2.1860 -22.5615 -1.5295 
0.0000 93.1000 0.0000 37.3603 -45.3726 -40.4471 -70.8501 -0.1403 87.9660 137.9835 71.8478 -56.8143 -9.2521 28.7623 -0.2294 -166.3846 22.2394 177.6364 -157.7773 62.3686 -169.5459 0.1727 -14.3307 -32.0881 -59.0186 61.4872 -66.7359 4.1527 3.2600 -50.5444 -0.2375 -0.0645 0.6108 -1.5733 7.1194 32.5125 -84.6161 -38.8894 104.6475 23.1270 -0.1697 89.6371 0.6665 -0.5201 0.4783 -0.7885 5.0952 98.2684 -4.4167 49.9370 -8.4077 -2.9545 -3.7250 -0.5248 9.2127 -21.5753 15.3180 -66.2010 -2.7437 79.5780 -2.3536 31.7931 24.5913 -4.3354 -9.8829 0.5254 4.3534 -27.8474 3.2358 
0.0000 93.1000 0.0000 34.9114 -44.3957 -42.4031 -70.8894 -0.1264 88.0054 134.4915 72.5205 -54.5364 -8.2152 29.8071 -1.1058 -166.1025 22.5167 174.9838 -159.0105 62.4378 -170.0430 0.2978 -13.8404 -32.0895 -64.6804 61.2859 -61.7278 4.0970 3.4096 -52.5957 -0.0575 -0.1507 0.3830 -1.6047 6.7845 33.2426 -85.5293 -39.0580 101.3869 23.3163 1.0461 92.5533 0.7632 -0.5216 0.2590 1.6314 6.6699 100.6344 -6.5947 58.5980 -4.8733 1.3950 -7.4915 -1.1712 5.5377 -15.4491 11.8829 -66.1530 -0.9697 87.5958 -1.1286 33.0101 13.8135 -2.8258 2.6719 -0.1876 6.7083 -35.0133 14.9382 
0.0000 93.1000 0.0000 33.6536 -42.2254 -43.8376 -70.9232 -0.1495 88.0417 131.0869 72.9435 -53.4852 -7.9328 29.0201 -0.9394 -167.1189 22.0354 172.1636 -159.5022 62.4360 -168.7224 0.3327 -13.9429 -32.0553 -69.2550 58.3305 -59.4301 4.4570 3.4602 -52.8472 0.1265 -0.3014 0.1551 -1.7353 6.0889 34.9044 -84.3384 -39.1211 95.4108 20.3669 1.1453 93.3859 0.4487 -0.6570 0.2117 1.2953 6.0933 101.8410 -8.1576 64.0940 -3.9177 4.0096 -12.9114 -1.6590 2.3047 -9.2982 12.0452 -62.0553 0.2831 93.7768 1.6709 41.5356 6.8330 2.7605 16.7224 -1.7904 5.4444 -33.4719 11.0607 
0.0000 93.1000 0.0000 33.7904 -40.1125 -42.5908 -70.9494 -0.1175 87.9959 128.1496 71.9925 -52.3233 -6.5943 26.9521 0.2127 -166.7337 21.8266 171.4698 -160.6649 61.8843 -165.9366 -0.1218 -14.5646 -33.2307 -76.0674 54.2026 -57.4207 4.7518 2.8634 -54.8620 0.1955 -0.0207 -0.0405 -1.9060 6.5115 37.9409 -81.0305 -38.2272 90.0219 17.3942 -0.1668 90.3551 -0.4776 -0.3520 0.1219 -1.8024 3.0777 101.2016 -10.8726 68.7088 -1.5875 4.3199 -16.6101 -2.1148 1.9864 -8.8699 14.1675 -52.7628 2.1984 95.1787 5.5543 60.3883 4.1146 8.8927 22.6402 -3.5207 2.9862 -13.1405 -25.2086 
0.0000 93.1000 0.0000 36.7511 -37.7932 -41.2810 -70.9683 -0.1180 88.0270 123.0866 70.6730 -49.9828 -5.2128 25.0056 -0.1712 -166.8031 20.8498 172.2676 -160.0003 61.4338 -165.3831 -0.3907 -15.9083 -34.3653 -81.4430 49.8479 -57.9559 4.0625 2.9675 -57.3909 0.2418 0.0276 0.0510 -2.1639 6.6640 41.2348 -75.6406 -39.2249 86.1403 15.1981 -2.5666 81.8297 -0.4506 -0.2164 -0.1059 -5.5578 -0.8718 101.2564 -12.9741 71.9807 -2.5575 3.7351 -19.2285 -2.2047 3.8656 -12.7206 18.9678 -39.6935 3.0484 94.3842 18.7384 81.2232 -22.5882 2.8514 17.9966 -2.1723 0.8831 -3.7089 -7.9198 
0.0000 93.1000 0.0000 38.4435 -36.0571 -40.4587 -70.9774 -0.1529 87.9803 118.8618 69.5282 -47.6379 -4.3819 23.2317 -0.1651 -167.7221 20.9740 172.4765 -159.3893 60.8906 -164.3689 -0.7211 -16.5303 -34.9796 -83.5246 44.3161 -64.8847 5.6003 2.8186 -59.4445 -0.1247 0.2667 0.2317 -2.5420 6.2977 43.5505 -70.4307 -40.1567 82.4355 12.5525 -4.7119 70.4915 -0.3592 0.0379 -0.2918 -11.5419 -3.6384 100.7873 -13.0842 70.9781 -5.4294 4.2550 -22.0135 -2.7548 6.0127 -16.2572 21.3261 -25.2601 4.1098 93.8732 153.3043 79.9244 -155.5434 -1.5219 18.9248 -1.1606 1.9463 -10.9638 -12.2943 
